{"title":"Ticking Clock 2011 SCR H264 Feel-Free","uid":6015008,"size":849165599,"categoryP":"video","categoryS":"movies","magnet":"?xt=urn:btih:87141ad0be45fe33924e166a818f7bda39ad2b80&amp;dn=Ticking+Clock+2011+SCR+H264+Feel-Free&amp;tr=udp%3A%2F%2Ftracker.openbittorrent.com%3A80&amp;tr=udp%3A%2F%2Fopen.demonii.com%3A1337&amp;tr=udp%3A%2F%2Ftracker.coppersurfer.tk%3A6969&amp;tr=udp%3A%2F%2Fexodus.desync.com%3A6969","seeders":0,"leechers":0,"uploader":"hiest","files":-1,"time":1291604778,"description":"\nTitle: Ticking Clock 2011 SCR H264 Feel-Free\n\nGenre: Action | Thriller \nLanguage:English\nIMDb:http://www.imdb.com/title/tt1519664/\nSource:IMAGiNE Thx.\n\nFormat : MPEG-4\nFormat profile : Base Media\nCodec ID : isom\nFile size : 808 MiB\nDuration : 1h 41mn\nOverall bit rate : 1 118 Kbps\n\n\nVideo\nCodec ID : avc1\nCodec ID/Info : Advanced Video Coding\nDuration : 1h 41mn\nBit rate mode : Variable\nBit rate : 950 Kbps\nWidth : 720 pixels\nHeight : 304 pixels\nDisplay aspect ratio : 2.35:1\nFrame rate mode : Constant\nFrame rate : 29.970 fps\nOriginal frame rate : 29.000 fps\nColor space : YUV\nChroma subsampling : 4:2:0\nBit depth : 8 bits\nScan type : Progressive\nBits/(Pixel*Frame) : 0.145\nStream size : 687 MiB (85%)\nLanguage : English\n\nAudio\nID : 1\nFormat : AAC\nFormat/Info : Advanced Audio Codec\nFormat version : Version 4\nFormat profile : LC\nCodec ID : 40\nDuration : 1h 41mn\nBit rate mode : Constant\nBit rate : 160 Kbps\nChannel(s) : 2 channels\nChannel positions : Front: L R\nSampling rate : 48.0 KHz\nStream size : 116 MiB (14%)\nLanguage : English\n\n\nPlot:\nA reporter stumbles upon the journal of a murderer replete with plans to butcher specific people, and investigates on his own, finding that every trail leads to a 9-year-old orphan living in a group home\n\n\n\n\n\n\n\n\n================================== &lt;a href=&quot;\nhttp://thepiratebay.se/user/hiest&quot; rel=&quot;nofollow&quot; target=&quot;_NEW&quot;&gt;\nhttp://thepiratebay.se/user/hiest&lt;/a&gt;\n==================================\n\n\n\n\n\n\n\n\nScreen Shots:\n &lt;a href=&quot;\nhttp://rapidhdd.com/images/759168vlcsnap-2010-12-05-19h57m33s75.png&quot; rel=&quot;nofollow&quot; target=&quot;_NEW&quot;&gt;\nhttp://rapidhdd.com/images/759168vlcsnap-2010-12-05-19h57m33s75.png&lt;/a&gt;\n &lt;a href=&quot;\nhttp://www.rapidhdd.com/images/584733vlcsnap-2010-12-05-19h57m39s144.png&quot; rel=&quot;nofollow&quot; target=&quot;_NEW&quot;&gt;\nhttp://www.rapidhdd.com/images/584733vlcsnap-2010-12-05-19h57m39s144.png&lt;/a&gt;\n &lt;a href=&quot;\nhttp://www.rapidhdd.com/images/208889vlcsnap-2010-12-05-19h57m59s88.png&quot; rel=&quot;nofollow&quot; target=&quot;_NEW&quot;&gt;\nhttp://www.rapidhdd.com/images/208889vlcsnap-2010-12-05-19h57m59s88.png&lt;/a&gt;\n &lt;a href=&quot;\nhttp://www.rapidhdd.com/images/584876vlcsnap-2010-12-05-19h57m48s225.png&quot; rel=&quot;nofollow&quot; target=&quot;_NEW&quot;&gt;\nhttp://www.rapidhdd.com/images/584876vlcsnap-2010-12-05-19h57m48s225.png&lt;/a&gt;\n &lt;a href=&quot;\nhttp://www.rapidhdd.com/images/573566vlcsnap-2010-12-05-19h57m54s35.png&quot; rel=&quot;nofollow&quot; target=&quot;_NEW&quot;&gt;\nhttp://www.rapidhdd.com/images/573566vlcsnap-2010-12-05-19h57m54s35.png&lt;/a&gt;\n &lt;a href=&quot;\nhttp://www.rapidhdd.com/images/901892vlcsnap-2010-12-05-19h58m33s167.png&quot; rel=&quot;nofollow&quot; target=&quot;_NEW&quot;&gt;\nhttp://www.rapidhdd.com/images/901892vlcsnap-2010-12-05-19h58m33s167.png&lt;/a&gt;\n\n","torrent":{"xt":"urn:btih:87141ad0be45fe33924e166a818f7bda39ad2b80","amp;dn":"Ticking+Clock+2011+SCR+H264+Feel-Free","amp;tr":["udp%3A%2F%2Ftracker.openbittorrent.com%3A80","udp%3A%2F%2Fopen.demonii.com%3A1337","udp%3A%2F%2Ftracker.coppersurfer.tk%3A6969","udp%3A%2F%2Fexodus.desync.com%3A6969"],"infoHash":"87141ad0be45fe33924e166a818f7bda39ad2b80","infoHashBuffer":{"type":"Buffer","data":[135,20,26,208,190,69,254,51,146,78,22,106,129,143,123,218,57,173,43,128]},"announce":[],"urlList":[]}}